<?xml version="1.0" encoding="UTF-8"?>
<!DOCTYPE svg PUBLIC "-//W3C//DTD SVG 1.1//EN" "http://www.w3.org/Graphics/SVG/1.1/DTD/svg11.dtd">
<svg version="1.2" width="64.54mm" height="14.45mm" viewBox="2542 1981 6454 1445" preserveAspectRatio="xMidYMid" fill-rule="evenodd" stroke-width="28.222" stroke-linejoin="round" xmlns="http://www.w3.org/2000/svg" xmlns:ooo="http://xml.openoffice.org/svg/export" xmlns:xlink="http://www.w3.org/1999/xlink" xmlns:presentation="http://sun.com/xmlns/staroffice/presentation" xmlns:smil="http://www.w3.org/2001/SMIL20/" xmlns:anim="urn:oasis:names:tc:opendocument:xmlns:animation:1.0" xml:space="preserve">
 <defs class="ClipPathGroup">
  <clipPath id="presentation_clip_path" clipPathUnits="userSpaceOnUse">
   <rect x="2542" y="1981" width="6454" height="1445"/>
  </clipPath>
  <clipPath id="presentation_clip_path_shrink" clipPathUnits="userSpaceOnUse">
   <rect x="2548" y="1982" width="6442" height="1443"/>
  </clipPath>
 </defs>
 <defs class="TextShapeIndex">
  <g ooo:slide="id1" ooo:id-list="id3 id4 id5 id6 id7 id8 id9 id10 id11 id12 id13 id14 id15 id16 id17 id18"/>
 </defs>
 <defs class="EmbeddedBulletChars">
  <g id="bullet-char-template-57356" transform="scale(0.00048828125,-0.00048828125)">
   <path d="M 580,1141 L 1163,571 580,0 -4,571 580,1141 Z"/>
  </g>
  <g id="bullet-char-template-57354" transform="scale(0.00048828125,-0.00048828125)">
   <path d="M 8,1128 L 1137,1128 1137,0 8,0 8,1128 Z"/>
  </g>
  <g id="bullet-char-template-10146" transform="scale(0.00048828125,-0.00048828125)">
   <path d="M 174,0 L 602,739 174,1481 1456,739 174,0 Z M 1358,739 L 309,1346 659,739 1358,739 Z"/>
  </g>
  <g id="bullet-char-template-10132" transform="scale(0.00048828125,-0.00048828125)">
   <path d="M 2015,739 L 1276,0 717,0 1260,543 174,543 174,936 1260,936 717,1481 1274,1481 2015,739 Z"/>
  </g>
  <g id="bullet-char-template-10007" transform="scale(0.00048828125,-0.00048828125)">
   <path d="M 0,-2 C -7,14 -16,27 -25,37 L 356,567 C 262,823 215,952 215,954 215,979 228,992 255,992 264,992 276,990 289,987 310,991 331,999 354,1012 L 381,999 492,748 772,1049 836,1024 860,1049 C 881,1039 901,1025 922,1006 886,937 835,863 770,784 769,783 710,716 594,584 L 774,223 C 774,196 753,168 711,139 L 727,119 C 717,90 699,76 672,76 641,76 570,178 457,381 L 164,-76 C 142,-110 111,-127 72,-127 30,-127 9,-110 8,-76 1,-67 -2,-52 -2,-32 -2,-23 -1,-13 0,-2 Z"/>
  </g>
  <g id="bullet-char-template-10004" transform="scale(0.00048828125,-0.00048828125)">
   <path d="M 285,-33 C 182,-33 111,30 74,156 52,228 41,333 41,471 41,549 55,616 82,672 116,743 169,778 240,778 293,778 328,747 346,684 L 369,508 C 377,444 397,411 428,410 L 1163,1116 C 1174,1127 1196,1133 1229,1133 1271,1133 1292,1118 1292,1087 L 1292,965 C 1292,929 1282,901 1262,881 L 442,47 C 390,-6 338,-33 285,-33 Z"/>
  </g>
  <g id="bullet-char-template-9679" transform="scale(0.00048828125,-0.00048828125)">
   <path d="M 813,0 C 632,0 489,54 383,161 276,268 223,411 223,592 223,773 276,916 383,1023 489,1130 632,1184 813,1184 992,1184 1136,1130 1245,1023 1353,916 1407,772 1407,592 1407,412 1353,268 1245,161 1136,54 992,0 813,0 Z"/>
  </g>
  <g id="bullet-char-template-8226" transform="scale(0.00048828125,-0.00048828125)">
   <path d="M 346,457 C 273,457 209,483 155,535 101,586 74,649 74,723 74,796 101,859 155,911 209,963 273,989 346,989 419,989 480,963 531,910 582,859 608,796 608,723 608,648 583,586 532,535 482,483 420,457 346,457 Z"/>
  </g>
  <g id="bullet-char-template-8211" transform="scale(0.00048828125,-0.00048828125)">
   <path d="M -4,459 L 1135,459 1135,606 -4,606 -4,459 Z"/>
  </g>
  <g id="bullet-char-template-61548" transform="scale(0.00048828125,-0.00048828125)">
   <path d="M 173,740 C 173,903 231,1043 346,1159 462,1274 601,1332 765,1332 928,1332 1067,1274 1183,1159 1299,1043 1357,903 1357,740 1357,577 1299,437 1183,322 1067,206 928,148 765,148 601,148 462,206 346,322 231,437 173,577 173,740 Z"/>
  </g>
 </defs>
 <defs class="TextEmbeddedBitmaps"/>
 <g class="SlideGroup">
  <g>
   <g id="container-id1">
    <g id="id1" class="Slide" clip-path="url(#presentation_clip_path)">
     <g class="Page">
      <g class="Group">
       <g class="com.sun.star.drawing.ClosedBezierShape">
        <g id="id3">
         <rect class="BoundingBox" stroke="none" fill="none" x="2889" y="2265" width="564" height="761"/>
         <path fill="rgb(35,31,32)" stroke="none" d="M 3031,2285 L 3033,2370 C 3059,2334 3090,2308 3122,2291 3155,2274 3196,2265 3245,2265 3318,2265 3371,2286 3403,2328 3436,2371 3452,2442 3452,2543 L 3452,3025 3296,3025 3296,2554 C 3296,2523 3294,2497 3290,2477 3287,2456 3281,2440 3274,2429 3266,2417 3256,2409 3243,2405 3231,2400 3216,2398 3199,2398 3166,2398 3137,2405 3113,2420 3089,2435 3066,2461 3045,2497 L 3045,3025 2889,3025 2889,2285 3031,2285 Z"/>
        </g>
       </g>
       <g class="com.sun.star.drawing.ClosedBezierShape">
        <g id="id4">
         <rect class="BoundingBox" stroke="none" fill="none" x="3602" y="2265" width="590" height="1162"/>
         <path fill="rgb(35,31,32)" stroke="none" d="M 3885,2913 C 3920,2913 3950,2903 3974,2884 3998,2865 4020,2834 4040,2791 L 4040,2520 C 4021,2479 4000,2448 3975,2428 3951,2408 3921,2398 3885,2398 3864,2398 3845,2402 3828,2409 3811,2417 3797,2431 3785,2450 3774,2470 3766,2496 3760,2530 3754,2563 3752,2605 3752,2655 3752,2706 3754,2748 3760,2780 3766,2813 3774,2840 3785,2859 3797,2879 3811,2892 3828,2901 3845,2909 3864,2913 3885,2913 Z M 4191,2285 L 4191,3056 C 4191,3123 4184,3180 4170,3227 4156,3273 4136,3311 4110,3341 4085,3370 4053,3392 4016,3406 3979,3419 3937,3426 3890,3426 3814,3426 3755,3410 3714,3378 3672,3347 3641,3301 3622,3243 L 3724,3183 C 3737,3214 3756,3240 3780,3260 3804,3281 3839,3291 3882,3291 3934,3291 3973,3273 3999,3237 4026,3202 4040,3141 4040,3056 L 4040,2937 C 4016,2972 3988,2999 3955,3017 3922,3036 3883,3045 3837,3045 3760,3045 3702,3016 3662,2957 3622,2896 3602,2797 3602,2659 3602,2587 3607,2526 3618,2476 3629,2426 3645,2385 3665,2354 3686,2323 3711,2300 3741,2286 3771,2272 3805,2265 3844,2265 3893,2265 3933,2276 3965,2297 3996,2318 4024,2348 4047,2387 L 4050,2285 4191,2285 Z"/>
        </g>
       </g>
       <g class="com.sun.star.drawing.ClosedBezierShape">
        <g id="id5">
         <rect class="BoundingBox" stroke="none" fill="none" x="4347" y="2265" width="558" height="781"/>
         <path fill="rgb(35,31,32)" stroke="none" d="M 4629,2393 C 4581,2393 4545,2409 4522,2442 4499,2474 4485,2528 4481,2603 L 4774,2603 C 4769,2526 4755,2472 4733,2440 4710,2409 4676,2393 4629,2393 Z M 4481,2716 C 4486,2789 4501,2841 4524,2873 4548,2906 4587,2922 4642,2922 4680,2922 4709,2915 4730,2901 4750,2887 4766,2869 4777,2846 L 4865,2905 C 4849,2943 4822,2976 4783,3004 4744,3031 4690,3045 4623,3045 4535,3045 4467,3015 4419,2956 4371,2896 4347,2798 4347,2660 4347,2522 4371,2422 4420,2359 4469,2297 4539,2265 4631,2265 4676,2265 4716,2273 4751,2288 4785,2304 4813,2328 4836,2362 4858,2396 4875,2440 4887,2494 4898,2548 4904,2614 4904,2691 L 4904,2716 4481,2716 Z"/>
        </g>
       </g>
       <g class="com.sun.star.drawing.ClosedBezierShape">
        <g id="id6">
         <rect class="BoundingBox" stroke="none" fill="none" x="5075" y="2265" width="564" height="761"/>
         <path fill="rgb(35,31,32)" stroke="none" d="M 5217,2285 L 5219,2370 C 5246,2334 5275,2308 5308,2291 5341,2274 5382,2265 5431,2265 5504,2265 5557,2286 5589,2328 5622,2371 5638,2442 5638,2543 L 5638,3025 5482,3025 5482,2554 C 5482,2523 5480,2497 5477,2477 5473,2456 5467,2440 5460,2429 5452,2417 5442,2409 5430,2405 5417,2400 5402,2398 5385,2398 5352,2398 5322,2405 5298,2420 5274,2435 5252,2461 5231,2497 L 5231,3025 5075,3025 5075,2285 5217,2285 Z"/>
        </g>
       </g>
       <g class="com.sun.star.drawing.PolyPolygonShape">
        <g id="id7">
         <rect class="BoundingBox" stroke="none" fill="none" x="5825" y="2299" width="158" height="728"/>
         <path fill="rgb(35,31,32)" stroke="none" d="M 5982,3025 L 5825,3025 5825,2299 5982,2299 5982,3025 Z"/>
        </g>
       </g>
       <g class="com.sun.star.drawing.ClosedBezierShape">
        <g id="id8">
         <rect class="BoundingBox" stroke="none" fill="none" x="6157" y="2265" width="557" height="781"/>
         <path fill="rgb(35,31,32)" stroke="none" d="M 6440,2393 C 6392,2393 6355,2409 6332,2442 6309,2474 6295,2528 6291,2603 L 6584,2603 C 6578,2526 6565,2472 6543,2440 6521,2409 6486,2393 6440,2393 Z M 6291,2716 C 6296,2789 6311,2841 6334,2873 6358,2906 6398,2922 6452,2922 6490,2922 6520,2915 6540,2901 6560,2887 6575,2869 6587,2846 L 6675,2905 C 6659,2943 6632,2976 6593,3004 6554,3031 6501,3045 6434,3045 6344,3045 6276,3015 6229,2956 6181,2896 6157,2798 6157,2660 6157,2522 6181,2422 6230,2359 6279,2297 6349,2265 6442,2265 6487,2265 6527,2273 6560,2288 6594,2304 6623,2328 6645,2362 6668,2396 6685,2440 6696,2494 6708,2548 6713,2614 6713,2691 L 6713,2716 6291,2716 Z"/>
        </g>
       </g>
       <g class="com.sun.star.drawing.ClosedBezierShape">
        <g id="id9">
         <rect class="BoundingBox" stroke="none" fill="none" x="6865" y="2284" width="554" height="762"/>
         <path fill="rgb(35,31,32)" stroke="none" d="M 7022,2285 L 7022,2769 C 7022,2822 7028,2859 7041,2881 7054,2903 7079,2914 7116,2914 7147,2914 7174,2906 7198,2891 7221,2876 7243,2851 7262,2817 L 7262,2285 7418,2285 7418,3025 7276,3025 7273,2945 C 7246,2981 7217,3007 7184,3022 7151,3038 7111,3045 7065,3045 6991,3045 6939,3025 6910,2984 6880,2942 6865,2877 6865,2788 L 6865,2285 7022,2285 Z"/>
        </g>
       </g>
       <g class="com.sun.star.drawing.ClosedBezierShape">
        <g id="id10">
         <rect class="BoundingBox" stroke="none" fill="none" x="7630" y="2265" width="474" height="761"/>
         <path fill="rgb(35,31,32)" stroke="none" d="M 7772,2285 L 7775,2393 C 7797,2352 7822,2320 7852,2298 7882,2276 7918,2265 7960,2265 8000,2265 8032,2274 8055,2292 8079,2310 8095,2332 8103,2359 L 8032,2443 C 8024,2428 8014,2416 8001,2407 7988,2398 7970,2393 7946,2393 7914,2393 7884,2403 7856,2423 7829,2443 7806,2477 7786,2523 L 7786,3025 7630,3025 7630,2285 7772,2285 Z"/>
        </g>
       </g>
       <g class="com.sun.star.drawing.ClosedBezierShape">
        <g id="id11">
         <rect class="BoundingBox" stroke="none" fill="none" x="8166" y="2265" width="557" height="781"/>
         <path fill="rgb(35,31,32)" stroke="none" d="M 8448,2393 C 8400,2393 8364,2409 8341,2442 8318,2474 8304,2528 8300,2603 L 8591,2603 C 8586,2526 8573,2472 8551,2440 8528,2409 8494,2393 8448,2393 Z M 8300,2716 C 8305,2789 8319,2841 8343,2873 8367,2906 8406,2922 8460,2922 8498,2922 8527,2915 8547,2901 8567,2887 8583,2869 8594,2846 L 8683,2905 C 8668,2943 8641,2976 8601,3004 8562,3031 8509,3045 8442,3045 8353,3045 8285,3015 8237,2956 8189,2896 8166,2798 8166,2660 8166,2522 8190,2422 8239,2359 8288,2297 8358,2265 8449,2265 8495,2265 8534,2273 8568,2288 8602,2304 8631,2328 8654,2362 8677,2396 8694,2440 8705,2494 8716,2548 8722,2614 8722,2691 L 8722,2716 8300,2716 Z"/>
        </g>
       </g>
       <g class="com.sun.star.drawing.PolyPolygonShape">
        <g id="id12">
         <rect class="BoundingBox" stroke="none" fill="none" x="2545" y="2284" width="156" height="380"/>
         <path fill="rgb(248,156,14)" stroke="none" d="M 2545,2284 L 2700,2284 2700,2663 2545,2663 2545,2284 Z"/>
        </g>
       </g>
       <g class="com.sun.star.drawing.ClosedBezierShape">
        <g id="id13">
         <rect class="BoundingBox" stroke="none" fill="none" x="2546" y="1981" width="155" height="156"/>
         <path fill="rgb(248,156,14)" stroke="none" d="M 2700,2057 C 2700,2101 2665,2135 2622,2135 2580,2135 2546,2101 2546,2057 2546,2015 2580,1981 2622,1981 2665,1981 2700,2015 2700,2057 Z"/>
        </g>
       </g>
       <g class="com.sun.star.drawing.ClosedBezierShape">
        <g id="id14">
         <rect class="BoundingBox" stroke="none" fill="none" x="5826" y="1981" width="156" height="156"/>
         <path fill="rgb(35,31,32)" stroke="none" d="M 5981,2057 C 5981,2101 5946,2135 5904,2135 5861,2135 5826,2101 5826,2057 5826,2015 5861,1981 5904,1981 5946,1981 5981,2015 5981,2057 Z"/>
        </g>
       </g>
       <g class="com.sun.star.drawing.ClosedBezierShape">
        <g id="id15">
         <rect class="BoundingBox" stroke="none" fill="none" x="8842" y="2891" width="156" height="155"/>
         <path fill="rgb(248,156,14)" stroke="none" d="M 8996,2968 C 8996,3011 8962,3045 8918,3045 8876,3045 8842,3011 8842,2968 8842,2925 8876,2891 8918,2891 8962,2891 8996,2925 8996,2968 Z"/>
        </g>
       </g>
       <g class="com.sun.star.drawing.PolyPolygonShape">
        <g id="id16">
         <rect class="BoundingBox" stroke="none" fill="none" x="2542" y="2730" width="157" height="81"/>
         <path fill="rgb(248,156,14)" stroke="none" d="M 2668,2730 L 2668,2779 2636,2779 2636,2730 2606,2730 2606,2779 2573,2779 2573,2730 2542,2730 2542,2779 2542,2794 2542,2810 2698,2810 2698,2794 2698,2779 2698,2730 2668,2730 Z"/>
        </g>
       </g>
       <g class="com.sun.star.drawing.PolyPolygonShape">
        <g id="id17">
         <rect class="BoundingBox" stroke="none" fill="none" x="2542" y="2856" width="157" height="33"/>
         <path fill="rgb(248,156,14)" stroke="none" d="M 2542,2856 L 2698,2856 2698,2888 2542,2888 2542,2856 Z"/>
        </g>
       </g>
       <g class="com.sun.star.drawing.ClosedBezierShape">
        <g id="id18">
         <rect class="BoundingBox" stroke="none" fill="none" x="2543" y="2923" width="156" height="103"/>
         <path fill="rgb(248,156,14)" stroke="none" d="M 2668,2996 L 2572,2996 2572,2976 C 2572,2976 2578,2952 2620,2952 2662,2952 2668,2975 2668,2975 L 2668,2996 Z M 2620,2923 C 2552,2923 2543,2971 2543,2971 L 2543,3025 2698,3025 2698,2971 C 2698,2971 2687,2923 2620,2923 Z"/>
        </g>
       </g>
      </g>
     </g>
    </g>
   </g>
  </g>
 </g>
</svg>